<?xml version="1.0" encoding="utf-8" standalone="no"?>
<!DOCTYPE svg PUBLIC "-//W3C//DTD SVG 1.1//EN"
  "http://www.w3.org/Graphics/SVG/1.1/DTD/svg11.dtd">
<svg xmlns:xlink="http://www.w3.org/1999/xlink" width="247.248pt" height="247.248pt" viewBox="0 0 247.248 247.248" xmlns="http://www.w3.org/2000/svg" version="1.1">
 <metadata>
  <rdf:RDF xmlns:dc="http://purl.org/dc/elements/1.1/" xmlns:cc="http://creativecommons.org/ns#" xmlns:rdf="http://www.w3.org/1999/02/22-rdf-syntax-ns#">
   <cc:Work>
    <dc:type rdf:resource="http://purl.org/dc/dcmitype/StillImage"/>
    <dc:date>2026-06-16T15:24:37.662810</dc:date>
    <dc:format>image/svg+xml</dc:format>
    <dc:creator>
     <cc:Agent>
      <dc:title>Matplotlib v3.10.3, https://matplotlib.org/</dc:title>
     </cc:Agent>
    </dc:creator>
   </cc:Work>
  </rdf:RDF>
 </metadata>
 <defs>
  <style type="text/css">*{stroke-linejoin: round; stroke-linecap: butt}</style>
 </defs>
 <g id="figure_1">
  <g id="patch_1">
   <path d="M 0 247.248 
L 247.248 247.248 
L 247.248 0 
L 0 0 
z
" style="fill: #ffffff"/>
  </g>
  <g id="axes_1">
   <g id="patch_2">
    <path d="M 202.79232 44.45568 
L 238.49568 44.45568 
L 238.49568 8.75232 
L 202.79232 8.75232 
z
" clip-path="url(#p78d720f6cd)" style="fill: #383634; stroke: #ffffff; stroke-width: 4; stroke-linejoin: miter"/>
   </g>
   <g id="patch_3">
    <path d="M 163.98432 44.45568 
L 199.68768 44.45568 
L 199.68768 8.75232 
L 163.98432 8.75232 
z
" clip-path="url(#p78d720f6cd)" style="fill: #383634; stroke: #ffffff; stroke-width: 4; stroke-linejoin: miter"/>
   </g>
   <g id="patch_4">
    <path d="M 125.17632 44.45568 
L 160.87968 44.45568 
L 160.87968 8.75232 
L 125.17632 8.75232 
z
" clip-path="url(#p78d720f6cd)" style="fill: #383635; stroke: #ffffff; stroke-width: 4; stroke-linejoin: miter"/>
   </g>
   <g id="patch_5">
    <path d="M 86.36832 44.45568 
L 122.07168 44.45568 
L 122.07168 8.75232 
L 86.36832 8.75232 
z
" clip-path="url(#p78d720f6cd)" style="fill: #3a3837; stroke: #ffffff; stroke-width: 4; stroke-linejoin: miter"/>
   </g>
   <g id="patch_6">
    <path d="M 47.56032 44.45568 
L 83.26368 44.45568 
L 83.26368 8.75232 
L 47.56032 8.75232 
z
" clip-path="url(#p78d720f6cd)" style="fill: #393736; stroke: #ffffff; stroke-width: 4; stroke-linejoin: miter"/>
   </g>
   <g id="patch_7">
    <path d="M 8.75232 44.45568 
L 44.45568 44.45568 
L 44.45568 8.75232 
L 8.75232 8.75232 
z
" clip-path="url(#p78d720f6cd)" style="fill: #3e3c3b; stroke: #ffffff; stroke-width: 4; stroke-linejoin: miter"/>
   </g>
   <g id="patch_8">
    <path d="M 202.79232 83.26368 
L 238.49568 83.26368 
L 238.49568 47.56032 
L 202.79232 47.56032 
z
" clip-path="url(#p78d720f6cd)" style="fill: #4e4d4e; stroke: #ffffff; stroke-width: 4; stroke-linejoin: miter"/>
   </g>
   <g id="patch_9">
    <path d="M 163.98432 83.26368 
L 199.68768 83.26368 
L 199.68768 47.56032 
L 163.98432 47.56032 
z
" clip-path="url(#p78d720f6cd)" style="fill: #4f4d4f; stroke: #ffffff; stroke-width: 4; stroke-linejoin: miter"/>
   </g>
   <g id="patch_10">
    <path d="M 125.17632 83.26368 
L 160.87968 83.26368 
L 160.87968 47.56032 
L 125.17632 47.56032 
z
" clip-path="url(#p78d720f6cd)" style="fill: #4f4e4f; stroke: #ffffff; stroke-width: 4; stroke-linejoin: miter"/>
   </g>
   <g id="patch_11">
    <path d="M 86.36832 83.26368 
L 122.07168 83.26368 
L 122.07168 47.56032 
L 86.36832 47.56032 
z
" clip-path="url(#p78d720f6cd)" style="fill: #4f4e4f; stroke: #ffffff; stroke-width: 4; stroke-linejoin: miter"/>
   </g>
   <g id="patch_12">
    <path d="M 47.56032 83.26368 
L 83.26368 83.26368 
L 83.26368 47.56032 
L 47.56032 47.56032 
z
" clip-path="url(#p78d720f6cd)" style="fill: #504f50; stroke: #ffffff; stroke-width: 4; stroke-linejoin: miter"/>
   </g>
   <g id="patch_13">
    <path d="M 8.75232 83.26368 
L 44.45568 83.26368 
L 44.45568 47.56032 
L 8.75232 47.56032 
z
" clip-path="url(#p78d720f6cd)" style="fill: #525051; stroke: #ffffff; stroke-width: 4; stroke-linejoin: miter"/>
   </g>
   <g id="patch_14">
    <path d="M 202.79232 122.07168 
L 238.49568 122.07168 
L 238.49568 86.36832 
L 202.79232 86.36832 
z
" clip-path="url(#p78d720f6cd)" style="fill: #676f72; stroke: #ffffff; stroke-width: 4; stroke-linejoin: miter"/>
   </g>
   <g id="patch_15">
    <path d="M 163.98432 122.07168 
L 199.68768 122.07168 
L 199.68768 86.36832 
L 163.98432 86.36832 
z
" clip-path="url(#p78d720f6cd)" style="fill: #687174; stroke: #ffffff; stroke-width: 4; stroke-linejoin: miter"/>
   </g>
   <g id="patch_16">
    <path d="M 125.17632 122.07168 
L 160.87968 122.07168 
L 160.87968 86.36832 
L 125.17632 86.36832 
z
" clip-path="url(#p78d720f6cd)" style="fill: #6b7375; stroke: #ffffff; stroke-width: 4; stroke-linejoin: miter"/>
   </g>
   <g id="patch_17">
    <path d="M 86.36832 122.07168 
L 122.07168 122.07168 
L 122.07168 86.36832 
L 86.36832 86.36832 
z
" clip-path="url(#p78d720f6cd)" style="fill: #676f72; stroke: #ffffff; stroke-width: 4; stroke-linejoin: miter"/>
   </g>
   <g id="patch_18">
    <path d="M 47.56032 122.07168 
L 83.26368 122.07168 
L 83.26368 86.36832 
L 47.56032 86.36832 
z
" clip-path="url(#p78d720f6cd)" style="fill: #6a7274; stroke: #ffffff; stroke-width: 4; stroke-linejoin: miter"/>
   </g>
   <g id="patch_19">
    <path d="M 8.75232 122.07168 
L 44.45568 122.07168 
L 44.45568 86.36832 
L 8.75232 86.36832 
z
" clip-path="url(#p78d720f6cd)" style="fill: #6a7274; stroke: #ffffff; stroke-width: 4; stroke-linejoin: miter"/>
   </g>
   <g id="patch_20">
    <path d="M 202.79232 160.87968 
L 238.49568 160.87968 
L 238.49568 125.17632 
L 202.79232 125.17632 
z
" clip-path="url(#p78d720f6cd)" style="fill: #8a9495; stroke: #ffffff; stroke-width: 4; stroke-linejoin: miter"/>
   </g>
   <g id="patch_21">
    <path d="M 163.98432 160.87968 
L 199.68768 160.87968 
L 199.68768 125.17632 
L 163.98432 125.17632 
z
" clip-path="url(#p78d720f6cd)" style="fill: #8b9495; stroke: #ffffff; stroke-width: 4; stroke-linejoin: miter"/>
   </g>
   <g id="patch_22">
    <path d="M 125.17632 160.87968 
L 160.87968 160.87968 
L 160.87968 125.17632 
L 125.17632 125.17632 
z
" clip-path="url(#p78d720f6cd)" style="fill: #8c9596; stroke: #ffffff; stroke-width: 4; stroke-linejoin: miter"/>
   </g>
   <g id="patch_23">
    <path d="M 86.36832 160.87968 
L 122.07168 160.87968 
L 122.07168 125.17632 
L 86.36832 125.17632 
z
" clip-path="url(#p78d720f6cd)" style="fill: #8e9697; stroke: #ffffff; stroke-width: 4; stroke-linejoin: miter"/>
   </g>
   <g id="patch_24">
    <path d="M 47.56032 160.87968 
L 83.26368 160.87968 
L 83.26368 125.17632 
L 47.56032 125.17632 
z
" clip-path="url(#p78d720f6cd)" style="fill: #909799; stroke: #ffffff; stroke-width: 4; stroke-linejoin: miter"/>
   </g>
   <g id="patch_25">
    <path d="M 8.75232 160.87968 
L 44.45568 160.87968 
L 44.45568 125.17632 
L 8.75232 125.17632 
z
" clip-path="url(#p78d720f6cd)" style="fill: #8f9898; stroke: #ffffff; stroke-width: 4; stroke-linejoin: miter"/>
   </g>
   <g id="patch_26">
    <path d="M 202.79232 199.68768 
L 238.49568 199.68768 
L 238.49568 163.98432 
L 202.79232 163.98432 
z
" clip-path="url(#p78d720f6cd)" style="fill: #b4b9bb; stroke: #ffffff; stroke-width: 4; stroke-linejoin: miter"/>
   </g>
   <g id="patch_27">
    <path d="M 163.98432 199.68768 
L 199.68768 199.68768 
L 199.68768 163.98432 
L 163.98432 163.98432 
z
" clip-path="url(#p78d720f6cd)" style="fill: #b4b9bb; stroke: #ffffff; stroke-width: 4; stroke-linejoin: miter"/>
   </g>
   <g id="patch_28">
    <path d="M 125.17632 199.68768 
L 160.87968 199.68768 
L 160.87968 163.98432 
L 125.17632 163.98432 
z
" clip-path="url(#p78d720f6cd)" style="fill: #b6bbbd; stroke: #ffffff; stroke-width: 4; stroke-linejoin: miter"/>
   </g>
   <g id="patch_29">
    <path d="M 86.36832 199.68768 
L 122.07168 199.68768 
L 122.07168 163.98432 
L 86.36832 163.98432 
z
" clip-path="url(#p78d720f6cd)" style="fill: #b7bcbe; stroke: #ffffff; stroke-width: 4; stroke-linejoin: miter"/>
   </g>
   <g id="patch_30">
    <path d="M 47.56032 199.68768 
L 83.26368 199.68768 
L 83.26368 163.98432 
L 47.56032 163.98432 
z
" clip-path="url(#p78d720f6cd)" style="fill: #b8bdbe; stroke: #ffffff; stroke-width: 4; stroke-linejoin: miter"/>
   </g>
   <g id="patch_31">
    <path d="M 8.75232 199.68768 
L 44.45568 199.68768 
L 44.45568 163.98432 
L 8.75232 163.98432 
z
" clip-path="url(#p78d720f6cd)" style="fill: #b7bcbd; stroke: #ffffff; stroke-width: 4; stroke-linejoin: miter"/>
   </g>
   <g id="patch_32">
    <path d="M 202.79232 238.49568 
L 238.49568 238.49568 
L 238.49568 202.79232 
L 202.79232 202.79232 
z
" clip-path="url(#p78d720f6cd)" style="fill: #dcdbe5; stroke: #ffffff; stroke-width: 4; stroke-linejoin: miter"/>
   </g>
   <g id="patch_33">
    <path d="M 163.98432 238.49568 
L 199.68768 238.49568 
L 199.68768 202.79232 
L 163.98432 202.79232 
z
" clip-path="url(#p78d720f6cd)" style="fill: #dfdee8; stroke: #ffffff; stroke-width: 4; stroke-linejoin: miter"/>
   </g>
   <g id="patch_34">
    <path d="M 125.17632 238.49568 
L 160.87968 238.49568 
L 160.87968 202.79232 
L 125.17632 202.79232 
z
" clip-path="url(#p78d720f6cd)" style="fill: #dfdfe8; stroke: #ffffff; stroke-width: 4; stroke-linejoin: miter"/>
   </g>
   <g id="patch_35">
    <path d="M 86.36832 238.49568 
L 122.07168 238.49568 
L 122.07168 202.79232 
L 86.36832 202.79232 
z
" clip-path="url(#p78d720f6cd)" style="fill: #e1e0e9; stroke: #ffffff; stroke-width: 4; stroke-linejoin: miter"/>
   </g>
   <g id="patch_36">
    <path d="M 47.56032 238.49568 
L 83.26368 238.49568 
L 83.26368 202.79232 
L 47.56032 202.79232 
z
" clip-path="url(#p78d720f6cd)" style="fill: #e1dfe9; stroke: #ffffff; stroke-width: 4; stroke-linejoin: miter"/>
   </g>
   <g id="patch_37">
    <path d="M 8.75232 238.49568 
L 44.45568 238.49568 
L 44.45568 202.79232 
L 8.75232 202.79232 
z
" clip-path="url(#p78d720f6cd)" style="fill: #e3e2ec; stroke: #ffffff; stroke-width: 4; stroke-linejoin: miter"/>
   </g>
   <g id="patch_38">
    <path d="M 8.75232 238.49568 
L 238.49568 238.49568 
L 238.49568 8.75232 
L 8.75232 8.75232 
L 8.75232 238.49568 
z
" clip-path="url(#p78d720f6cd)" style="fill: none; stroke: #000000; stroke-width: 4; stroke-linejoin: miter"/>
   </g>
  </g>
 </g>
 <defs>
  <clipPath id="p78d720f6cd">
   <rect x="7.2" y="7.2" width="232.848" height="232.848"/>
  </clipPath>
 </defs>
</svg>
